<?xml version="1.0" encoding="UTF-8"?>
<svg xmlns="http://www.w3.org/2000/svg" width="55" height="53" viewBox="0 0 55 53" fill="none">
  <g filter="url(#filter0_b_68_539)">
    <path d="M51.5352 21.0553C54.7061 17.3991 54.5115 11.9138 51.0893 8.49168L46.2037 3.60603C42.7815 0.183894 37.2962 -0.0107728 33.6401 3.16016C30.173 6.16719 25.0223 6.16719 21.5552 3.16016C17.8991 -0.0107728 12.4138 0.183896 8.99162 3.60604L4.10597 8.49168C0.683831 11.9138 0.489165 17.3991 3.6601 21.0553C6.66713 24.5224 6.66713 29.673 3.6601 33.1402C0.48916 36.7963 0.683828 42.2816 4.10597 45.7038L7.33727 48.9351C11.6915 53.2893 18.6708 53.5369 23.3227 49.5024C25.7756 47.3749 29.4197 47.3749 31.8727 49.5024C36.5246 53.5369 43.5039 53.2893 47.858 48.9351L51.0893 45.7038C54.5115 42.2816 54.7062 36.7963 51.5352 33.1402C48.5282 29.673 48.5282 24.5224 51.5352 21.0553Z" fill="#D9D9D9" fill-opacity="0.01"></path>
    <path d="M50.8419 8.73917C54.1341 12.0314 54.3214 17.3086 51.2708 20.8259C48.1497 24.4247 48.1497 29.7708 51.2708 33.3695C54.3214 36.8869 54.1341 42.164 50.8419 45.4563L47.6106 48.6876C43.3862 52.9119 36.6151 53.1522 32.102 49.238C29.5174 46.9964 25.6779 46.9964 23.0933 49.238C18.5802 53.1522 11.8091 52.9119 7.58475 48.6876L4.35346 45.4563C1.06119 42.164 0.87391 36.8869 3.92451 33.3695C7.04566 29.7708 7.04566 24.4247 3.92451 20.8259C0.873915 17.3086 1.0612 12.0314 4.35346 8.73917L9.23911 3.85352C12.5314 0.561259 17.8085 0.373978 21.3259 3.42457C24.9246 6.54572 30.2707 6.54572 33.8694 3.42457C37.3868 0.373978 42.6639 0.561257 45.9562 3.85352L50.8419 8.73917Z" stroke="#111118" stroke-width="0.7"></path>
    <path d="M50.8419 8.73917C54.1341 12.0314 54.3214 17.3086 51.2708 20.8259C48.1497 24.4247 48.1497 29.7708 51.2708 33.3695C54.3214 36.8869 54.1341 42.164 50.8419 45.4563L47.6106 48.6876C43.3862 52.9119 36.6151 53.1522 32.102 49.238C29.5174 46.9964 25.6779 46.9964 23.0933 49.238C18.5802 53.1522 11.8091 52.9119 7.58475 48.6876L4.35346 45.4563C1.06119 42.164 0.87391 36.8869 3.92451 33.3695C7.04566 29.7708 7.04566 24.4247 3.92451 20.8259C0.873915 17.3086 1.0612 12.0314 4.35346 8.73917L9.23911 3.85352C12.5314 0.561259 17.8085 0.373978 21.3259 3.42457C24.9246 6.54572 30.2707 6.54572 33.8694 3.42457C37.3868 0.373978 42.6639 0.561257 45.9562 3.85352L50.8419 8.73917Z" stroke="url(#paint0_linear_68_539)" stroke-width="0.7"></path>
  </g>
  <path d="M36 17H20C18.8954 17 18 17.8954 18 19V23C18 24.1046 18.8954 25 20 25H36C37.1046 25 38 24.1046 38 23V19C38 17.8954 37.1046 17 36 17Z" stroke="url(#paint1_linear_68_539)" stroke-width="1.5" stroke-linecap="round" stroke-linejoin="round"></path>
  <path d="M36 29H20C18.8954 29 18 29.8954 18 31V35C18 36.1046 18.8954 37 20 37H36C37.1046 37 38 36.1046 38 35V31C38 29.8954 37.1046 29 36 29Z" stroke="url(#paint2_linear_68_539)" stroke-width="1.5" stroke-linecap="round" stroke-linejoin="round"></path>
  <path d="M22 21H22.01" stroke="url(#paint3_linear_68_539)" stroke-width="1.5" stroke-linecap="round" stroke-linejoin="round"></path>
  <path d="M22 33H22.01" stroke="url(#paint4_linear_68_539)" stroke-width="1.5" stroke-linecap="round" stroke-linejoin="round"></path>
  <defs>
    <filter id="filter0_b_68_539" x="-45.5952" y="-46.0951" width="146.386" height="145.467" color-interpolation-filters="sRGB">
      <feFlood flood-opacity="0" result="BackgroundImageFix"></feFlood>
      <feGaussianBlur in="BackgroundImageFix" stdDeviation="23.5"></feGaussianBlur>
      <feComposite in2="SourceAlpha" operator="in" result="effect1_backgroundBlur_68_539"></feComposite>
      <feBlend mode="normal" in="SourceGraphic" in2="effect1_backgroundBlur_68_539" result="shape"></feBlend>
    </filter>
    <linearGradient id="paint0_linear_68_539" x1="27.3691" y1="7.75635" x2="27.6125" y2="48.8991" gradientUnits="userSpaceOnUse">
      <stop stop-color="#83B2F7"></stop>
      <stop offset="0.605" stop-color="#5C3DEA"></stop>
      <stop offset="1" stop-color="#121286"></stop>
    </linearGradient>
    <linearGradient id="paint1_linear_68_539" x1="18" y1="21" x2="38" y2="21" gradientUnits="userSpaceOnUse">
      <stop stop-color="#429CF0"></stop>
      <stop offset="1" stop-color="#555BF1"></stop>
    </linearGradient>
    <linearGradient id="paint2_linear_68_539" x1="18" y1="33" x2="38" y2="33" gradientUnits="userSpaceOnUse">
      <stop stop-color="#429CF0"></stop>
      <stop offset="1" stop-color="#555BF1"></stop>
    </linearGradient>
    <linearGradient id="paint3_linear_68_539" x1="22" y1="21.5" x2="22.01" y2="21.5" gradientUnits="userSpaceOnUse">
      <stop stop-color="#429CF0"></stop>
      <stop offset="1" stop-color="#555BF1"></stop>
    </linearGradient>
    <linearGradient id="paint4_linear_68_539" x1="22" y1="33.5" x2="22.01" y2="33.5" gradientUnits="userSpaceOnUse">
      <stop stop-color="#429CF0"></stop>
      <stop offset="1" stop-color="#555BF1"></stop>
    </linearGradient>
  </defs>
</svg>
