<?xml version="1.0" encoding="UTF-8"?>
<svg xmlns="http://www.w3.org/2000/svg" width="51" height="51" viewBox="0 0 51 51" fill="none">
  <path fill-rule="evenodd" clip-rule="evenodd" d="M48.1638 7.36461C51.4812 10.682 51.6699 15.9994 48.596 19.5436C45.681 22.9047 45.681 27.8976 48.596 31.2586C51.6699 34.8029 51.4812 40.1203 48.1638 43.4377L43.4277 48.1738C40.1103 51.4912 34.7929 51.6799 31.2486 48.606C27.8876 45.691 22.8946 45.691 19.5336 48.606C15.9894 51.6799 10.672 51.4912 7.3546 48.1738L2.61849 43.4377C-0.698901 40.1203 -0.88761 34.8029 2.18627 31.2586C5.10126 27.8976 5.10126 22.9047 2.18627 19.5436C-0.887608 15.9994 -0.698898 10.682 2.6185 7.36461L7.3546 2.6285C10.672 -0.68889 15.9894 -0.877601 19.5336 2.19628C22.8946 5.11127 27.8876 5.11127 31.2486 2.19628C34.7929 -0.877601 40.1103 -0.688891 43.4277 2.6285L48.1638 7.36461ZM24.3121 6.40411C23.8613 6.40411 23.4958 6.76959 23.4958 7.22043V9.95767C23.4958 12.5557 22.4638 15.0473 20.6267 16.8843L16.8741 20.6369C15.0371 22.474 12.5455 23.506 9.94746 23.506H7.21022C6.75938 23.506 6.3939 23.8715 6.3939 24.3224V26.2502C6.3939 26.7011 6.75938 27.0665 7.21022 27.0665H10.2442C12.8422 27.0665 15.3338 28.0986 17.1708 29.9357L20.6267 33.3915C22.4638 35.2286 23.4958 37.7202 23.4958 40.3182V43.3521C23.4958 43.803 23.8613 44.1685 24.3121 44.1685H26.24C26.6908 44.1685 27.0563 43.803 27.0563 43.3521V40.3182C27.0563 37.7202 28.0884 35.2286 29.9254 33.3915L33.3813 29.9357C35.2184 28.0986 37.71 27.0665 40.308 27.0665H43.3419C43.7928 27.0665 44.1583 26.7011 44.1583 26.2502V24.3224C44.1583 23.8715 43.7928 23.506 43.3419 23.506H40.6047C38.0067 23.506 35.5151 22.474 33.678 20.6369L29.9254 16.8843C28.0884 15.0473 27.0563 12.5557 27.0563 9.95767V7.22043C27.0563 6.76959 26.6908 6.40411 26.24 6.40411H24.3121Z" fill="white"></path>
</svg>
