<?xml version="1.0" encoding="UTF-8"?>
<svg xmlns="http://www.w3.org/2000/svg" width="17" height="16" viewBox="0 0 17 16" fill="none">
  <path d="M11.3335 5.3335C12.3944 5.3335 13.4118 5.75492 14.1619 6.50507C14.9121 7.25521 15.3335 8.27263 15.3335 9.3335V14.0002H12.6668V9.3335C12.6668 8.97987 12.5264 8.64074 12.2763 8.39069C12.0263 8.14064 11.6871 8.00016 11.3335 8.00016C10.9799 8.00016 10.6407 8.14064 10.3907 8.39069C10.1406 8.64074 10.0002 8.97987 10.0002 9.3335V14.0002H7.3335V9.3335C7.3335 8.27263 7.75492 7.25521 8.50507 6.50507C9.25521 5.75492 10.2726 5.3335 11.3335 5.3335Z" stroke="#747490" stroke-linecap="round" stroke-linejoin="round"></path>
  <path d="M4.66667 6H2V14H4.66667V6Z" stroke="#747490" stroke-linecap="round" stroke-linejoin="round"></path>
  <path d="M3.33333 4.00016C4.06971 4.00016 4.66667 3.40321 4.66667 2.66683C4.66667 1.93045 4.06971 1.3335 3.33333 1.3335C2.59695 1.3335 2 1.93045 2 2.66683C2 3.40321 2.59695 4.00016 3.33333 4.00016Z" stroke="#747490" stroke-linecap="round" stroke-linejoin="round"></path>
</svg>
