<?xml version="1.0" encoding="UTF-8"?>
<svg xmlns="http://www.w3.org/2000/svg" width="364" height="364" viewBox="0 0 364 364" fill="none">
  <g filter="url(#filter0_b_58_8788)">
    <path d="M348.037 140.088C370.031 114.728 368.681 76.6808 344.944 52.944L311.056 19.056C287.319 -4.68083 249.272 -6.0311 223.912 15.9633C199.863 36.8208 164.137 36.8208 140.088 15.9633C114.728 -6.0311 76.6808 -4.68083 52.944 19.056L19.056 52.944C-4.68078 76.6808 -6.03106 114.728 15.9633 140.088C36.8208 164.137 36.8208 199.863 15.9633 223.912C-6.03108 249.272 -4.68084 287.319 19.056 311.056L52.944 344.944C76.6808 368.681 114.728 370.031 140.088 348.037C164.137 327.179 199.863 327.179 223.912 348.037C249.272 370.031 287.319 368.681 311.056 344.944L344.944 311.056C368.681 287.319 370.031 249.272 348.037 223.912C327.179 199.863 327.179 164.137 348.037 140.088Z" fill="#D9D9D9" fill-opacity="0.01"></path>
    <path d="M344.697 53.1915C368.303 76.7984 369.646 114.638 347.772 139.859C326.801 164.039 326.801 199.961 347.772 224.141C369.646 249.362 368.303 287.202 344.697 310.808L310.809 344.696C287.202 368.303 249.362 369.646 224.141 347.772C199.961 326.801 164.039 326.801 139.859 347.772C114.638 369.646 76.7984 368.303 53.1915 344.696L19.3035 310.808C-4.30347 287.202 -5.64634 249.362 16.2277 224.141C37.1993 199.961 37.1993 164.039 16.2277 139.859C-5.64632 114.638 -4.30341 76.7984 19.3035 53.1915L53.1915 19.3034C76.7984 -4.30347 114.638 -5.64635 139.859 16.2277C164.039 37.1993 199.961 37.1993 224.141 16.2277C249.362 -5.64635 287.202 -4.30347 310.808 19.3034L344.697 53.1915Z" stroke="#111118" stroke-width="0.7"></path>
    <path d="M344.697 53.1915C368.303 76.7984 369.646 114.638 347.772 139.859C326.801 164.039 326.801 199.961 347.772 224.141C369.646 249.362 368.303 287.202 344.697 310.808L310.809 344.696C287.202 368.303 249.362 369.646 224.141 347.772C199.961 326.801 164.039 326.801 139.859 347.772C114.638 369.646 76.7984 368.303 53.1915 344.696L19.3035 310.808C-4.30347 287.202 -5.64634 249.362 16.2277 224.141C37.1993 199.961 37.1993 164.039 16.2277 139.859C-5.64632 114.638 -4.30341 76.7984 19.3035 53.1915L53.1915 19.3034C76.7984 -4.30347 114.638 -5.64635 139.859 16.2277C164.039 37.1993 199.961 37.1993 224.141 16.2277C249.362 -5.64635 287.202 -4.30347 310.808 19.3034L344.697 53.1915Z" stroke="url(#paint0_linear_58_8788)" stroke-width="0.7"></path>
  </g>
  <defs>
    <filter id="filter0_b_58_8788" x="-19.68" y="-19.6799" width="403.36" height="403.36" color-interpolation-filters="sRGB">
      <feFlood flood-opacity="0" result="BackgroundImageFix"></feFlood>
      <feGaussianBlur in="BackgroundImageFix" stdDeviation="10"></feGaussianBlur>
      <feComposite in2="SourceAlpha" operator="in" result="effect1_backgroundBlur_58_8788"></feComposite>
      <feBlend mode="normal" in="SourceGraphic" in2="effect1_backgroundBlur_58_8788" result="shape"></feBlend>
    </filter>
    <linearGradient id="paint0_linear_58_8788" x1="180.414" y1="47.8435" x2="182.103" y2="333.22" gradientUnits="userSpaceOnUse">
      <stop stop-color="#83B2F7"></stop>
      <stop offset="0.605" stop-color="#5C3DEA"></stop>
      <stop offset="1" stop-color="#121286"></stop>
    </linearGradient>
  </defs>
</svg>
