<?xml version="1.0" encoding="UTF-8"?>
<svg xmlns="http://www.w3.org/2000/svg" width="34" height="34" viewBox="0 0 34 34" fill="none">
  <g opacity="0.5" filter="url(#filter0_b_68_11870)">
    <path d="M32.3527 13.1246C34.3864 10.7796 34.2616 7.26155 32.0667 5.06672L28.9332 1.93324C26.7384 -0.261597 23.2203 -0.386451 20.8754 1.64727C18.6517 3.57588 15.3483 3.57588 13.1246 1.64728C10.7797 -0.386451 7.26159 -0.261593 5.06676 1.93324L1.93328 5.06672C-0.261556 7.26156 -0.386412 10.7796 1.64731 13.1246C3.57591 15.3482 3.57591 18.6517 1.64731 20.8754C-0.386416 23.2203 -0.261559 26.7384 1.93328 28.9332L5.06675 32.0667C7.26159 34.2615 10.7797 34.3864 13.1246 32.3526C15.3483 30.4241 18.6517 30.4241 20.8754 32.3527C23.2203 34.3864 26.7384 34.2615 28.9333 32.0667L32.0667 28.9332C34.2616 26.7384 34.3864 23.2203 32.3527 20.8754C30.4241 18.6517 30.4241 15.3482 32.3527 13.1246Z" fill="#D9D9D9" fill-opacity="0.01"></path>
    <path d="M31.8192 5.3142C33.8842 7.37917 34.0017 10.6891 32.0883 12.8952C30.0456 15.2505 30.0456 18.7494 32.0883 21.1047C34.0017 23.3108 33.8842 26.6208 31.8192 28.6857L28.6858 31.8192C26.6208 33.8842 23.3109 34.0016 21.1047 32.0882C18.7495 30.0455 15.2505 30.0455 12.8953 32.0882C10.6891 34.0016 7.3792 33.8842 5.31424 31.8192L2.18077 28.6857C0.115803 26.6208 -0.00166683 23.3108 1.91172 21.1047C3.95444 18.7494 3.95444 15.2505 1.91172 12.8952C-0.00166076 10.6891 0.115807 7.37917 2.18077 5.31421L5.31424 2.18073C7.3792 0.11577 10.6891 -0.0016997 12.8953 1.91168C15.2505 3.95441 18.7495 3.95441 21.1047 1.91168C23.3109 -0.00170038 26.6208 0.115766 28.6858 2.18073L31.8192 5.3142Z" stroke="#111118" stroke-width="0.7"></path>
    <path d="M31.8192 5.3142C33.8842 7.37917 34.0017 10.6891 32.0883 12.8952C30.0456 15.2505 30.0456 18.7494 32.0883 21.1047C34.0017 23.3108 33.8842 26.6208 31.8192 28.6857L28.6858 31.8192C26.6208 33.8842 23.3109 34.0016 21.1047 32.0882C18.7495 30.0455 15.2505 30.0455 12.8953 32.0882C10.6891 34.0016 7.3792 33.8842 5.31424 31.8192L2.18077 28.6857C0.115803 26.6208 -0.00166683 23.3108 1.91172 21.1047C3.95444 18.7494 3.95444 15.2505 1.91172 12.8952C-0.00166076 10.6891 0.115807 7.37917 2.18077 5.31421L5.31424 2.18073C7.3792 0.11577 10.6891 -0.0016997 12.8953 1.91168C15.2505 3.95441 18.7495 3.95441 21.1047 1.91168C23.3109 -0.00170038 26.6208 0.115766 28.6858 2.18073L31.8192 5.3142Z" stroke="url(#paint0_linear_68_11870)" stroke-width="0.7"></path>
  </g>
  <defs>
    <filter id="filter0_b_68_11870" x="-19.7992" y="-19.7991" width="73.5984" height="73.5981" color-interpolation-filters="sRGB">
      <feFlood flood-opacity="0" result="BackgroundImageFix"></feFlood>
      <feGaussianBlur in="BackgroundImageFix" stdDeviation="10"></feGaussianBlur>
      <feComposite in2="SourceAlpha" operator="in" result="effect1_backgroundBlur_68_11870"></feComposite>
      <feBlend mode="normal" in="SourceGraphic" in2="effect1_backgroundBlur_68_11870" result="shape"></feBlend>
    </filter>
    <linearGradient id="paint0_linear_68_11870" x1="16.8534" y1="4.5951" x2="17.0095" y2="30.9826" gradientUnits="userSpaceOnUse">
      <stop stop-color="#83B2F7"></stop>
      <stop offset="0.605" stop-color="#5C3DEA"></stop>
      <stop offset="1" stop-color="#121286"></stop>
    </linearGradient>
  </defs>
</svg>
