<svg width="16" height="15" viewBox="0 0 16 15" fill="none" xmlns="http://www.w3.org/2000/svg">
<path d="M15.5 7.5C15.5 7.66576 15.4342 7.82473 15.3169 7.94194C15.1997 8.05915 15.0408 8.125 14.875 8.125H8.625V14.375C8.625 14.5408 8.55915 14.6997 8.44194 14.8169C8.32473 14.9342 8.16576 15 8 15C7.83424 15 7.67527 14.9342 7.55806 14.8169C7.44085 14.6997 7.375 14.5408 7.375 14.375V8.125H1.125C0.95924 8.125 0.800269 8.05915 0.683058 7.94194C0.565848 7.82473 0.5 7.66576 0.5 7.5C0.5 7.33424 0.565848 7.17527 0.683058 7.05806C0.800269 6.94085 0.95924 6.875 1.125 6.875H7.375V0.625C7.375 0.45924 7.44085 0.300269 7.55806 0.183058C7.67527 0.0658481 7.83424 0 8 0C8.16576 0 8.32473 0.0658481 8.44194 0.183058C8.55915 0.300269 8.625 0.45924 8.625 0.625V6.875H14.875C15.0408 6.875 15.1997 6.94085 15.3169 7.05806C15.4342 7.17527 15.5 7.33424 15.5 7.5Z" fill="#747490"/>
</svg>
