<svg width="16" height="16" viewBox="0 0 16 16" fill="none" xmlns="http://www.w3.org/2000/svg">
<path d="M7.24574 0.754256C7.24574 0.337692 7.58344 0 8 0C8.41656 0 8.75426 0.337693 8.75426 0.754256V2.84727C8.75426 3.08892 8.85025 3.32067 9.02112 3.49154L12.5085 6.97888C12.6793 7.14975 12.9111 7.24574 13.1527 7.24574H15.2457C15.6623 7.24574 16 7.58344 16 8C16 8.41656 15.6623 8.75426 15.2457 8.75426H13.0417C12.7907 8.75426 12.5499 8.85399 12.3724 9.03152L9.03152 12.3724C8.85399 12.5499 8.75426 12.7907 8.75426 13.0417V15.2457C8.75426 15.6623 8.41656 16 8 16C7.58344 16 7.24574 15.6623 7.24574 15.2457V13.0417C7.24574 12.7907 7.14601 12.5499 6.96848 12.3724L3.62765 9.03152C3.45012 8.85399 3.20934 8.75426 2.95827 8.75426H0.754256C0.337692 8.75426 0 8.41656 0 8C0 7.58344 0.337692 7.24574 0.754256 7.24574H2.84727C3.08892 7.24574 3.32067 7.14975 3.49154 6.97888L6.97888 3.49154C7.14975 3.32067 7.24574 3.08892 7.24574 2.84727V0.754256Z" fill="#3B42ED"/>
</svg>
